<?xml version="1.0" encoding="utf-8"?>
<!-- Generator: Adobe Illustrator 26.5.0, SVG Export Plug-In . SVG Version: 6.00 Build 0)  -->
<svg version="1.1" id="Ebene_1" xmlns="http://www.w3.org/2000/svg" xmlns:xlink="http://www.w3.org/1999/xlink" x="0px" y="0px"
	 viewBox="0 0 221.1 73.7" style="enable-background:new 0 0 221.1 73.7;" xml:space="preserve">
<style type="text/css">
	.st0{fill:#3B444D;}
	.st1{fill:#D1111C;}
	.st2{fill:#FFFFFF;}
</style>
<g>
	<g>
		<path class="st0" d="M83.1,36V7.8h2.7V36H83.1z"/>
		<path class="st0" d="M95.8,13v23H93V7.8h2.1l18.7,23.5V7.8h2.7V36h-2.4L95.8,13z"/>
		<path class="st0" d="M123.5,7.8l10.1,24.7l10-24.7h2.9L134.8,36h-2.4L120.6,7.8H123.5z"/>
		<path class="st0" d="M169.5,33.5V36h-18.9V7.8h18.6v2.5h-15.8v10.2h13.8v2.3h-13.8v10.8H169.5z"/>
		<path class="st0" d="M191,13.1c-0.8-0.9-1.9-1.6-3.2-2.2c-1.3-0.6-2.8-0.8-4.5-0.8c-2.5,0-4.3,0.5-5.5,1.4
			c-1.1,0.9-1.7,2.2-1.7,3.8c0,0.8,0.2,1.5,0.5,2.1c0.3,0.5,0.8,1,1.4,1.4c0.6,0.4,1.5,0.7,2.5,1c1,0.3,2.2,0.6,3.5,0.9
			c1.5,0.3,2.9,0.7,4,1.1c1.2,0.4,2.2,0.9,3.1,1.5c0.8,0.6,1.5,1.3,1.9,2.2c0.4,0.9,0.7,1.9,0.7,3.2c0,1.3-0.3,2.4-0.8,3.4
			c-0.5,1-1.2,1.7-2.1,2.4c-0.9,0.6-2,1.1-3.2,1.4c-1.2,0.3-2.6,0.5-4,0.5c-4.4,0-8.2-1.4-11.3-4.1l1.3-2.3c1,1.1,2.4,2,4.2,2.8
			s3.7,1.1,5.8,1.1c2.2,0,4-0.4,5.3-1.2c1.3-0.8,1.9-2,1.9-3.7c0-0.9-0.2-1.6-0.5-2.2c-0.4-0.6-0.9-1.1-1.6-1.5s-1.6-0.8-2.7-1.1
			c-1.1-0.3-2.3-0.6-3.7-1c-1.5-0.3-2.8-0.7-3.9-1.1c-1.1-0.4-2-0.8-2.8-1.4s-1.3-1.2-1.7-2c-0.4-0.8-0.6-1.7-0.6-2.9
			c0-1.3,0.2-2.5,0.7-3.5c0.5-1,1.2-1.9,2.1-2.5c0.9-0.7,1.9-1.2,3.2-1.5c1.2-0.4,2.6-0.5,4.1-0.5c1.9,0,3.5,0.3,5,0.9
			c1.5,0.6,2.8,1.4,4,2.4L191,13.1z"/>
		<path class="st0" d="M218.4,10.3h-10V36h-2.8V10.3h-10V7.8h22.9V10.3z"/>
	</g>
	<g>
		<path class="st0" d="M82.2,67l7.5-18h1.4l7.5,18h-1.9l-2.3-5.6h-8.1L84.1,67H82.2z M90.5,51.1L86.8,60h7.3L90.5,51.1z"/>
		<path class="st0" d="M103.1,52.3V67h-1.8V49h1.4l11.9,15V49h1.8v18h-1.5L103.1,52.3z"/>
		<path class="st0" d="M119.1,67l7.5-18h1.4l7.5,18h-1.9l-2.3-5.6h-8.1L121,67H119.1z M127.4,51.1l-3.7,8.9h7.3L127.4,51.1z"/>
		<path class="st0" d="M138.2,67V49h1.8v16.5h10.4V67H138.2z"/>
		<path class="st0" d="M150.1,49l5.9,9.7L162,49h1.9l-7,11.3V67h-1.8v-6.8l-7-11.3H150.1z"/>
		<path class="st0" d="M179.2,50.6h-6.4V67H171V50.6h-6.4V49h14.6V50.6z"/>
		<path class="st0" d="M181.9,67V49h1.8v18H181.9z"/>
		<path class="st0" d="M187.1,57.9c0-1.1,0.2-2.2,0.6-3.2c0.4-1.1,0.9-2,1.7-2.9c0.7-0.8,1.6-1.5,2.7-2.1c1.1-0.5,2.3-0.8,3.6-0.8
			c1.6,0,3,0.4,4.1,1.1c1.1,0.7,2,1.7,2.5,2.8l-1.4,0.9c-0.3-0.6-0.6-1.1-1-1.5c-0.4-0.4-0.8-0.7-1.3-1c-0.5-0.3-1-0.4-1.5-0.5
			c-0.5-0.1-1-0.2-1.5-0.2c-1.1,0-2,0.2-2.9,0.7c-0.8,0.4-1.5,1-2.1,1.7c-0.6,0.7-1,1.5-1.3,2.4c-0.3,0.9-0.4,1.8-0.4,2.7
			c0,1,0.2,2,0.5,2.9c0.3,0.9,0.8,1.7,1.4,2.4c0.6,0.7,1.3,1.3,2.1,1.7c0.8,0.4,1.7,0.6,2.7,0.6c0.5,0,1-0.1,1.6-0.2s1-0.3,1.5-0.6
			c0.5-0.3,1-0.6,1.4-1c0.4-0.4,0.8-0.9,1.1-1.5l1.5,0.8c-0.3,0.7-0.7,1.3-1.2,1.8s-1.1,1-1.8,1.3c-0.6,0.4-1.3,0.6-2,0.8
			s-1.4,0.3-2.1,0.3c-1.2,0-2.4-0.3-3.4-0.8s-1.9-1.2-2.7-2.1c-0.7-0.9-1.3-1.9-1.7-3C187.3,60.2,187.1,59,187.1,57.9z"/>
		<path class="st0" d="M216.2,52.4c-0.5-0.6-1.2-1-2-1.4s-1.8-0.5-2.9-0.5c-1.6,0-2.8,0.3-3.5,0.9c-0.7,0.6-1.1,1.4-1.1,2.5
			c0,0.5,0.1,1,0.3,1.3c0.2,0.3,0.5,0.6,0.9,0.9s0.9,0.5,1.6,0.7c0.6,0.2,1.4,0.4,2.2,0.6c1,0.2,1.8,0.4,2.6,0.7
			c0.8,0.2,1.4,0.6,2,0.9c0.5,0.4,1,0.8,1.2,1.4c0.3,0.6,0.4,1.2,0.4,2c0,0.8-0.2,1.5-0.5,2.2c-0.3,0.6-0.8,1.1-1.3,1.5
			c-0.6,0.4-1.3,0.7-2.1,0.9c-0.8,0.2-1.7,0.3-2.6,0.3c-2.8,0-5.2-0.9-7.2-2.6l0.9-1.4c0.7,0.7,1.5,1.3,2.7,1.8
			c1.1,0.5,2.4,0.7,3.7,0.7c1.4,0,2.6-0.3,3.4-0.8c0.8-0.5,1.2-1.3,1.2-2.3c0-0.6-0.1-1-0.3-1.4s-0.6-0.7-1-1s-1-0.5-1.7-0.7
			c-0.7-0.2-1.5-0.4-2.4-0.6c-0.9-0.2-1.8-0.4-2.5-0.7c-0.7-0.2-1.3-0.5-1.8-0.9c-0.5-0.4-0.8-0.8-1.1-1.3c-0.2-0.5-0.4-1.1-0.4-1.8
			c0-0.8,0.2-1.6,0.5-2.2c0.3-0.7,0.8-1.2,1.3-1.6c0.6-0.4,1.2-0.8,2-1s1.7-0.3,2.6-0.3c1.2,0,2.2,0.2,3.2,0.5
			c0.9,0.4,1.8,0.9,2.6,1.5L216.2,52.4z"/>
	</g>
	<rect x="2.7" y="2" class="st1" width="69.6" height="69.6"/>
	<g>
		<polygon class="st2" points="14,65.3 24.9,65.3 24.9,9.6 14,9.6 		"/>
		<polyline class="st2" points="42.1,22.3 57,65.7 68.2,65.7 51.6,22 46.8,9.6 37.2,9.6 32.4,22.3 		"/>
	</g>
</g>
</svg>
